<svg id="visual" viewBox="0 0 900 600" width="900" height="600" xmlns="http://www.w3.org/2000/svg" xmlns:xlink="http://www.w3.org/1999/xlink" version="1.1"><g stroke-width="1" stroke-linejoin="bevel"><path d="M476 311L499 340L509 337.7Z" fill="#8e12a4" stroke="#8e12a4"></path><path d="M509 337.7L531 301.1L476 311Z" fill="#530560" stroke="#530560"></path><path d="M522 377.9L536 349.7L509 337.7Z" fill="#9e15b5" stroke="#9e15b5"></path><path d="M509 337.7L536 349.7L531 301.1Z" fill="#530560" stroke="#530560"></path><path d="M483 255L466 264.1L476 311Z" fill="#450350" stroke="#450350"></path><path d="M531 301.1L483 255L476 311Z" fill="#450350" stroke="#450350"></path><path d="M462 393.6L522 377.9L499 340Z" fill="#be1dda" stroke="#be1dda"></path><path d="M499 340L522 377.9L509 337.7Z" fill="#ae19c8" stroke="#ae19c8"></path><path d="M522 377.9L532 380.6L536 349.7Z" fill="#be1dda" stroke="#be1dda"></path><path d="M413 340.7L438 368.9L476 311Z" fill="#7f0e92" stroke="#7f0e92"></path><path d="M476 311L438 368.9L499 340Z" fill="#700b81" stroke="#700b81"></path><path d="M522 377.9L510 414.7L532 380.6Z" fill="#450350" stroke="#450350"></path><path d="M438 368.9L462 393.6L499 340Z" fill="#ae19c8" stroke="#ae19c8"></path><path d="M532 380.6L584 329.9L536 349.7Z" fill="#ae19c8" stroke="#ae19c8"></path><path d="M536 349.7L584 329.9L531 301.1Z" fill="#be1dda" stroke="#be1dda"></path><path d="M531 301.1L545 237.1L483 255Z" fill="#9e15b5" stroke="#9e15b5"></path><path d="M584 329.9L584 293L531 301.1Z" fill="#610870" stroke="#610870"></path><path d="M422 262L413 340.7L476 311Z" fill="#530560" stroke="#530560"></path><path d="M584 293L545 237.1L531 301.1Z" fill="#530560" stroke="#530560"></path><path d="M413 340.7L419 361.9L438 368.9Z" fill="#ce21ed" stroke="#ce21ed"></path><path d="M438 368.9L427 432.7L462 393.6Z" fill="#7f0e92" stroke="#7f0e92"></path><path d="M459 223.3L422 262L466 264.1Z" fill="#450350" stroke="#450350"></path><path d="M466 264.1L422 262L476 311Z" fill="#be1dda" stroke="#be1dda"></path><path d="M459 223.3L466 264.1L483 255Z" fill="#610870" stroke="#610870"></path><path d="M545 237.1L495 218.1L483 255Z" fill="#610870" stroke="#610870"></path><path d="M462 393.6L510 414.7L522 377.9Z" fill="#ae19c8" stroke="#ae19c8"></path><path d="M532 380.6L610 402.6L584 329.9Z" fill="#7f0e92" stroke="#7f0e92"></path><path d="M495 218.1L459 223.3L483 255Z" fill="#8e12a4" stroke="#8e12a4"></path><path d="M406 205.3L424 221.4L408 169.4Z" fill="#700b81" stroke="#700b81"></path><path d="M459 223.3L424 221.4L422 262Z" fill="#8e12a4" stroke="#8e12a4"></path><path d="M354 334.9L372 383.6L413 340.7Z" fill="#9e15b5" stroke="#9e15b5"></path><path d="M510 414.7L560 424.4L532 380.6Z" fill="#7f0e92" stroke="#7f0e92"></path><path d="M632 342.9L631 335L584 329.9Z" fill="#610870" stroke="#610870"></path><path d="M584 329.9L631 335L584 293Z" fill="#9e15b5" stroke="#9e15b5"></path><path d="M584 293L619 224.1L545 237.1Z" fill="#450350" stroke="#450350"></path><path d="M610 402.6L632 342.9L584 329.9Z" fill="#450350" stroke="#450350"></path><path d="M378 418.7L427 432.7L419 361.9Z" fill="#ce21ed" stroke="#ce21ed"></path><path d="M419 361.9L427 432.7L438 368.9Z" fill="#450350" stroke="#450350"></path><path d="M462 393.6L469 459.4L510 414.7Z" fill="#8e12a4" stroke="#8e12a4"></path><path d="M510 414.7L509 517.3L560 424.4Z" fill="#ce21ed" stroke="#ce21ed"></path><path d="M560 424.4L610 402.6L532 380.6Z" fill="#380241" stroke="#380241"></path><path d="M665 301.9L638 296L631 335Z" fill="#ae19c8" stroke="#ae19c8"></path><path d="M631 335L638 296L584 293Z" fill="#8e12a4" stroke="#8e12a4"></path><path d="M354 334.9L413 340.7L422 262Z" fill="#be1dda" stroke="#be1dda"></path><path d="M413 340.7L372 383.6L419 361.9Z" fill="#530560" stroke="#530560"></path><path d="M408 169.4L424 221.4L459 223.3Z" fill="#be1dda" stroke="#be1dda"></path><path d="M424 221.4L385 213.1L422 262Z" fill="#7f0e92" stroke="#7f0e92"></path><path d="M610 402.6L641 349.7L632 342.9Z" fill="#380241" stroke="#380241"></path><path d="M632 342.9L641 349.7L631 335Z" fill="#ae19c8" stroke="#ae19c8"></path><path d="M360 239.3L354 334.9L422 262Z" fill="#8e12a4" stroke="#8e12a4"></path><path d="M427 432.7L469 459.4L462 393.6Z" fill="#7f0e92" stroke="#7f0e92"></path><path d="M514 145.4L491 165.4L495 218.1Z" fill="#450350" stroke="#450350"></path><path d="M495 218.1L491 165.4L459 223.3Z" fill="#700b81" stroke="#700b81"></path><path d="M575 171.3L495 218.1L545 237.1Z" fill="#450350" stroke="#450350"></path><path d="M642 251.3L619 224.1L584 293Z" fill="#ae19c8" stroke="#ae19c8"></path><path d="M408 169.4L385 213.1L406 205.3Z" fill="#be1dda" stroke="#be1dda"></path><path d="M406 205.3L385 213.1L424 221.4Z" fill="#be1dda" stroke="#be1dda"></path><path d="M638 296L642 251.3L584 293Z" fill="#610870" stroke="#610870"></path><path d="M658 253.3L642 251.3L638 296Z" fill="#450350" stroke="#450350"></path><path d="M372 383.6L378 418.7L419 361.9Z" fill="#450350" stroke="#450350"></path><path d="M427 432.7L454 470.6L469 459.4Z" fill="#450350" stroke="#450350"></path><path d="M324 387.6L378 418.7L372 383.6Z" fill="#610870" stroke="#610870"></path><path d="M385 213.1L360 239.3L422 262Z" fill="#7f0e92" stroke="#7f0e92"></path><path d="M637 168.4L589 184.3L619 224.1Z" fill="#ae19c8" stroke="#ae19c8"></path><path d="M619 224.1L589 184.3L545 237.1Z" fill="#7f0e92" stroke="#7f0e92"></path><path d="M429 474.6L454 470.6L427 432.7Z" fill="#7f0e92" stroke="#7f0e92"></path><path d="M616 480.4L608 444.6L560 424.4Z" fill="#be1dda" stroke="#be1dda"></path><path d="M315 326L347 370.7L354 334.9Z" fill="#8e12a4" stroke="#8e12a4"></path><path d="M354 334.9L347 370.7L372 383.6Z" fill="#be1dda" stroke="#be1dda"></path><path d="M589 184.3L575 171.3L545 237.1Z" fill="#610870" stroke="#610870"></path><path d="M641 349.7L665 301.9L631 335Z" fill="#7f0e92" stroke="#7f0e92"></path><path d="M494 132.6L465 152.6L491 165.4Z" fill="#700b81" stroke="#700b81"></path><path d="M491 165.4L465 152.6L459 223.3Z" fill="#ce21ed" stroke="#ce21ed"></path><path d="M509 517.3L510 414.7L469 459.4Z" fill="#be1dda" stroke="#be1dda"></path><path d="M560 424.4L608 444.6L610 402.6Z" fill="#450350" stroke="#450350"></path><path d="M610 402.6L672 381.6L641 349.7Z" fill="#be1dda" stroke="#be1dda"></path><path d="M641 349.7L671 353.9L665 301.9Z" fill="#380241" stroke="#380241"></path><path d="M608 444.6L630 424.4L610 402.6Z" fill="#380241" stroke="#380241"></path><path d="M665 301.9L658 253.3L638 296Z" fill="#700b81" stroke="#700b81"></path><path d="M642 251.3L658 253.3L619 224.1Z" fill="#700b81" stroke="#700b81"></path><path d="M575 171.3L514 145.4L495 218.1Z" fill="#8e12a4" stroke="#8e12a4"></path><path d="M608 444.6L630 427.4L630 424.4Z" fill="#7f0e92" stroke="#7f0e92"></path><path d="M672 381.6L671 353.9L641 349.7Z" fill="#9e15b5" stroke="#9e15b5"></path><path d="M378 418.7L429 474.6L427 432.7Z" fill="#9e15b5" stroke="#9e15b5"></path><path d="M465 152.6L408 169.4L459 223.3Z" fill="#610870" stroke="#610870"></path><path d="M385 213.1L345 227.1L360 239.3Z" fill="#ae19c8" stroke="#ae19c8"></path><path d="M672 381.6L610 402.6L630 424.4Z" fill="#530560" stroke="#530560"></path><path d="M343 222.1L345 227.1L385 213.1Z" fill="#8e12a4" stroke="#8e12a4"></path><path d="M313 260L315 326L354 334.9Z" fill="#450350" stroke="#450350"></path><path d="M594 121.4L563 146.4L575 171.3Z" fill="#380241" stroke="#380241"></path><path d="M575 171.3L563 146.4L514 145.4Z" fill="#700b81" stroke="#700b81"></path><path d="M594 121.4L575 171.3L589 184.3Z" fill="#ce21ed" stroke="#ce21ed"></path><path d="M338 168.6L343 222.1L385 213.1Z" fill="#380241" stroke="#380241"></path><path d="M313 260L354 334.9L360 239.3Z" fill="#7f0e92" stroke="#7f0e92"></path><path d="M494 132.6L451 140.4L465 152.6Z" fill="#380241" stroke="#380241"></path><path d="M465 152.6L451 140.4L408 169.4Z" fill="#7f0e92" stroke="#7f0e92"></path><path d="M494 132.6L491 165.4L514 145.4Z" fill="#8e12a4" stroke="#8e12a4"></path><path d="M539 136.6L494 132.6L514 145.4Z" fill="#8e12a4" stroke="#8e12a4"></path><path d="M313 260L360 239.3L345 227.1Z" fill="#450350" stroke="#450350"></path><path d="M347 370.7L324 387.6L372 383.6Z" fill="#610870" stroke="#610870"></path><path d="M563 146.4L539 136.6L514 145.4Z" fill="#700b81" stroke="#700b81"></path><path d="M688 428.6L672 381.6L630 424.4Z" fill="#530560" stroke="#530560"></path><path d="M665 301.9L677 254.1L658 253.3Z" fill="#ae19c8" stroke="#ae19c8"></path><path d="M674 178.6L637 168.4L619 224.1Z" fill="#530560" stroke="#530560"></path><path d="M727 298.9L677 254.1L665 301.9Z" fill="#7f0e92" stroke="#7f0e92"></path><path d="M714 321.9L665 301.9L671 353.9Z" fill="#530560" stroke="#530560"></path><path d="M314 374.9L324 387.6L347 370.7Z" fill="#610870" stroke="#610870"></path><path d="M378 418.7L371 503.4L429 474.6Z" fill="#7f0e92" stroke="#7f0e92"></path><path d="M315 326L314 374.9L347 370.7Z" fill="#450350" stroke="#450350"></path><path d="M310 222.3L313 260L345 227.1Z" fill="#700b81" stroke="#700b81"></path><path d="M315 326L303 364.9L314 374.9Z" fill="#530560" stroke="#530560"></path><path d="M418 556.3L463 511.4L429 474.6Z" fill="#7f0e92" stroke="#7f0e92"></path><path d="M429 474.6L463 511.4L454 470.6Z" fill="#8e12a4" stroke="#8e12a4"></path><path d="M454 470.6L463 511.4L469 459.4Z" fill="#ae19c8" stroke="#ae19c8"></path><path d="M463 511.4L509 517.3L469 459.4Z" fill="#7f0e92" stroke="#7f0e92"></path><path d="M608 444.6L616 480.4L630 427.4Z" fill="#450350" stroke="#450350"></path><path d="M630 427.4L688 428.6L630 424.4Z" fill="#700b81" stroke="#700b81"></path><path d="M579 520.1L616 480.4L560 424.4Z" fill="#ae19c8" stroke="#ae19c8"></path><path d="M258 315.9L303 364.9L315 326Z" fill="#ce21ed" stroke="#ce21ed"></path><path d="M314 374.9L284 429.7L324 387.6Z" fill="#ce21ed" stroke="#ce21ed"></path><path d="M674 178.6L619 224.1L658 253.3Z" fill="#450350" stroke="#450350"></path><path d="M563 146.4L594 121.4L539 136.6Z" fill="#9e15b5" stroke="#9e15b5"></path><path d="M688 428.6L702 356.7L672 381.6Z" fill="#ce21ed" stroke="#ce21ed"></path><path d="M672 381.6L702 356.7L671 353.9Z" fill="#8e12a4" stroke="#8e12a4"></path><path d="M451 140.4L401 132.6L408 169.4Z" fill="#ce21ed" stroke="#ce21ed"></path><path d="M408 169.4L338 168.6L385 213.1Z" fill="#ce21ed" stroke="#ce21ed"></path><path d="M343 222.1L310 222.3L345 227.1Z" fill="#700b81" stroke="#700b81"></path><path d="M419 107.7L401 132.6L451 140.4Z" fill="#8e12a4" stroke="#8e12a4"></path><path d="M463 511.4L490 526.1L509 517.3Z" fill="#ce21ed" stroke="#ce21ed"></path><path d="M509 517.3L579 520.1L560 424.4Z" fill="#be1dda" stroke="#be1dda"></path><path d="M309 174.3L310 222.3L343 222.1Z" fill="#380241" stroke="#380241"></path><path d="M313 260L258 315.9L315 326Z" fill="#610870" stroke="#610870"></path><path d="M383 122.7L393 131.7L401 132.6Z" fill="#be1dda" stroke="#be1dda"></path><path d="M401 132.6L393 131.7L408 169.4Z" fill="#9e15b5" stroke="#9e15b5"></path><path d="M463 511.4L488 529.3L490 526.1Z" fill="#700b81" stroke="#700b81"></path><path d="M490 526.1L488 529.3L509 517.3Z" fill="#9e15b5" stroke="#9e15b5"></path><path d="M702 356.7L714 321.9L671 353.9Z" fill="#be1dda" stroke="#be1dda"></path><path d="M677 254.1L674 178.6L658 253.3Z" fill="#ae19c8" stroke="#ae19c8"></path><path d="M637 168.4L594 121.4L589 184.3Z" fill="#380241" stroke="#380241"></path><path d="M514 62.7L473 99.7L494 132.6Z" fill="#8e12a4" stroke="#8e12a4"></path><path d="M494 132.6L473 99.7L451 140.4Z" fill="#7f0e92" stroke="#7f0e92"></path><path d="M547 77.6L494 132.6L539 136.6Z" fill="#be1dda" stroke="#be1dda"></path><path d="M393 131.7L338 168.6L408 169.4Z" fill="#ce21ed" stroke="#ce21ed"></path><path d="M565 541.3L579 520.1L509 517.3Z" fill="#be1dda" stroke="#be1dda"></path><path d="M679 530.3L688 428.6L616 480.4Z" fill="#7f0e92" stroke="#7f0e92"></path><path d="M616 480.4L688 428.6L630 427.4Z" fill="#450350" stroke="#450350"></path><path d="M744 301L727 298.9L714 321.9Z" fill="#610870" stroke="#610870"></path><path d="M717 208.1L674 178.6L677 254.1Z" fill="#7f0e92" stroke="#7f0e92"></path><path d="M637 168.4L655 145.6L594 121.4Z" fill="#7f0e92" stroke="#7f0e92"></path><path d="M473 99.7L419 107.7L451 140.4Z" fill="#450350" stroke="#450350"></path><path d="M393 131.7L335 148.4L338 168.6Z" fill="#700b81" stroke="#700b81"></path><path d="M419 107.7L383 122.7L401 132.6Z" fill="#ce21ed" stroke="#ce21ed"></path><path d="M284 429.7L378 418.7L324 387.6Z" fill="#380241" stroke="#380241"></path><path d="M284 429.7L371 503.4L378 418.7Z" fill="#610870" stroke="#610870"></path><path d="M463 511.4L418 556.3L488 529.3Z" fill="#7f0e92" stroke="#7f0e92"></path><path d="M744 301L714 321.9L744 377.6Z" fill="#610870" stroke="#610870"></path><path d="M714 321.9L727 298.9L665 301.9Z" fill="#9e15b5" stroke="#9e15b5"></path><path d="M674 178.6L655 145.6L637 168.4Z" fill="#be1dda" stroke="#be1dda"></path><path d="M371 503.4L378 515.1L429 474.6Z" fill="#7f0e92" stroke="#7f0e92"></path><path d="M565 542.1L565 541.3L550 559.1Z" fill="#530560" stroke="#530560"></path><path d="M579 520.1L629 519.1L616 480.4Z" fill="#700b81" stroke="#700b81"></path><path d="M565 541.3L509 517.3L550 559.1Z" fill="#be1dda" stroke="#be1dda"></path><path d="M383 122.7L335 148.4L393 131.7Z" fill="#ae19c8" stroke="#ae19c8"></path><path d="M338 168.6L309 174.3L343 222.1Z" fill="#ce21ed" stroke="#ce21ed"></path><path d="M550 559.1L509 517.3L488 529.3Z" fill="#380241" stroke="#380241"></path><path d="M565 541.3L586 544.3L579 520.1Z" fill="#700b81" stroke="#700b81"></path><path d="M268 201.4L275 244.1L310 222.3Z" fill="#610870" stroke="#610870"></path><path d="M310 222.3L275 244.1L313 260Z" fill="#450350" stroke="#450350"></path><path d="M335 148.4L309 174.3L338 168.6Z" fill="#9e15b5" stroke="#9e15b5"></path><path d="M473 99.7L447 82.9L419 107.7Z" fill="#be1dda" stroke="#be1dda"></path><path d="M419 107.7L362 102.6L383 122.7Z" fill="#700b81" stroke="#700b81"></path><path d="M383 122.7L362 102.6L335 148.4Z" fill="#530560" stroke="#530560"></path><path d="M483 47.9L447 82.9L473 99.7Z" fill="#be1dda" stroke="#be1dda"></path><path d="M593 544.3L629 519.1L579 520.1Z" fill="#ae19c8" stroke="#ae19c8"></path><path d="M254 270L258 315.9L313 260Z" fill="#be1dda" stroke="#be1dda"></path><path d="M264 410.6L284 429.7L314 374.9Z" fill="#380241" stroke="#380241"></path><path d="M371 503.4L337 521.4L378 515.1Z" fill="#610870" stroke="#610870"></path><path d="M264 410.6L314 374.9L303 364.9Z" fill="#ce21ed" stroke="#ce21ed"></path><path d="M727 298.9L717 208.1L677 254.1Z" fill="#530560" stroke="#530560"></path><path d="M674 178.6L714 120.6L655 145.6Z" fill="#450350" stroke="#450350"></path><path d="M580 82.7L539 136.6L594 121.4Z" fill="#610870" stroke="#610870"></path><path d="M580 82.7L547 77.6L539 136.6Z" fill="#450350" stroke="#450350"></path><path d="M565 542.1L586 544.3L565 541.3Z" fill="#700b81" stroke="#700b81"></path><path d="M744 377.6L714 321.9L702 356.7Z" fill="#8e12a4" stroke="#8e12a4"></path><path d="M778 256.1L738 203.4L717 208.1Z" fill="#700b81" stroke="#700b81"></path><path d="M586 544.3L593 544.3L579 520.1Z" fill="#ae19c8" stroke="#ae19c8"></path><path d="M609 84.7L580 82.7L594 121.4Z" fill="#700b81" stroke="#700b81"></path><path d="M565 542.1L550 559.1L586 544.3Z" fill="#380241" stroke="#380241"></path><path d="M586 544.3L604 600L593 544.3Z" fill="#be1dda" stroke="#be1dda"></path><path d="M517 600L550 559.1L488 529.3Z" fill="#7f0e92" stroke="#7f0e92"></path><path d="M275 244.1L254 270L313 260Z" fill="#ae19c8" stroke="#ae19c8"></path><path d="M254 221.1L254 270L275 244.1Z" fill="#9e15b5" stroke="#9e15b5"></path><path d="M746 381.7L744 377.6L688 428.6Z" fill="#9e15b5" stroke="#9e15b5"></path><path d="M688 428.6L744 377.6L702 356.7Z" fill="#530560" stroke="#530560"></path><path d="M738 203.4L719 192.3L717 208.1Z" fill="#8e12a4" stroke="#8e12a4"></path><path d="M717 208.1L719 192.3L674 178.6Z" fill="#700b81" stroke="#700b81"></path><path d="M633 82.9L609 84.7L594 121.4Z" fill="#7f0e92" stroke="#7f0e92"></path><path d="M258 315.9L264 410.6L303 364.9Z" fill="#7f0e92" stroke="#7f0e92"></path><path d="M257 417.7L264 410.6L217 392.7Z" fill="#ae19c8" stroke="#ae19c8"></path><path d="M390 589.1L418 556.3L378 515.1Z" fill="#450350" stroke="#450350"></path><path d="M378 515.1L418 556.3L429 474.6Z" fill="#ae19c8" stroke="#ae19c8"></path><path d="M344 51.9L362 102.6L419 107.7Z" fill="#ce21ed" stroke="#ce21ed"></path><path d="M281 131.7L258 170.3L309 174.3Z" fill="#ce21ed" stroke="#ce21ed"></path><path d="M574 15.9L514 62.7L547 77.6Z" fill="#530560" stroke="#530560"></path><path d="M547 77.6L514 62.7L494 132.6Z" fill="#be1dda" stroke="#be1dda"></path><path d="M337 86.9L333 93.7L362 102.6Z" fill="#ce21ed" stroke="#ce21ed"></path><path d="M725 452.4L746 381.7L688 428.6Z" fill="#7f0e92" stroke="#7f0e92"></path><path d="M788 311L783 305.9L744 301Z" fill="#700b81" stroke="#700b81"></path><path d="M633 82.9L594 121.4L655 145.6Z" fill="#8e12a4" stroke="#8e12a4"></path><path d="M580 82.7L574 15.9L547 77.6Z" fill="#ae19c8" stroke="#ae19c8"></path><path d="M258 170.3L268 201.4L309 174.3Z" fill="#8e12a4" stroke="#8e12a4"></path><path d="M309 174.3L268 201.4L310 222.3Z" fill="#7f0e92" stroke="#7f0e92"></path><path d="M311 513.4L371 503.4L284 429.7Z" fill="#530560" stroke="#530560"></path><path d="M311 513.4L337 521.4L371 503.4Z" fill="#ae19c8" stroke="#ae19c8"></path><path d="M217 392.7L264 410.6L258 315.9Z" fill="#380241" stroke="#380241"></path><path d="M264 410.6L257 417.7L284 429.7Z" fill="#450350" stroke="#450350"></path><path d="M268 201.4L254 221.1L275 244.1Z" fill="#380241" stroke="#380241"></path><path d="M679 530.3L616 480.4L629 519.1Z" fill="#700b81" stroke="#700b81"></path><path d="M679 530.3L725 452.4L688 428.6Z" fill="#be1dda" stroke="#be1dda"></path><path d="M778 256.1L717 208.1L727 298.9Z" fill="#450350" stroke="#450350"></path><path d="M652 83.9L633 82.9L655 145.6Z" fill="#530560" stroke="#530560"></path><path d="M522 0L483 47.9L514 62.7Z" fill="#9e15b5" stroke="#9e15b5"></path><path d="M514 62.7L483 47.9L473 99.7Z" fill="#8e12a4" stroke="#8e12a4"></path><path d="M652 83.9L655 145.6L713 109.7Z" fill="#8e12a4" stroke="#8e12a4"></path><path d="M609 84.7L574 15.9L580 82.7Z" fill="#700b81" stroke="#700b81"></path><path d="M272 482.4L311 513.4L284 429.7Z" fill="#530560" stroke="#530560"></path><path d="M426 600L432 583.1L390 589.1Z" fill="#8e12a4" stroke="#8e12a4"></path><path d="M432 583.1L418 556.3L390 589.1Z" fill="#ce21ed" stroke="#ce21ed"></path><path d="M418 556.3L432 583.1L488 529.3Z" fill="#700b81" stroke="#700b81"></path><path d="M337 86.9L362 102.6L344 51.9Z" fill="#ae19c8" stroke="#ae19c8"></path><path d="M362 102.6L333 93.7L335 148.4Z" fill="#9e15b5" stroke="#9e15b5"></path><path d="M268 201.4L244 184.4L254 221.1Z" fill="#8e12a4" stroke="#8e12a4"></path><path d="M714 120.6L674 178.6L719 192.3Z" fill="#610870" stroke="#610870"></path><path d="M600 0L574 15.9L609 84.7Z" fill="#700b81" stroke="#700b81"></path><path d="M199 251.3L221 296L254 270Z" fill="#450350" stroke="#450350"></path><path d="M254 270L221 296L258 315.9Z" fill="#700b81" stroke="#700b81"></path><path d="M619 600L629 519.1L593 544.3Z" fill="#610870" stroke="#610870"></path><path d="M619 600L679 530.3L629 519.1Z" fill="#7f0e92" stroke="#7f0e92"></path><path d="M344 51.9L419 107.7L421 13.9Z" fill="#ae19c8" stroke="#ae19c8"></path><path d="M281 131.7L309 174.3L335 148.4Z" fill="#9e15b5" stroke="#9e15b5"></path><path d="M213 456.6L272 482.4L257 417.7Z" fill="#8e12a4" stroke="#8e12a4"></path><path d="M257 417.7L272 482.4L284 429.7Z" fill="#450350" stroke="#450350"></path><path d="M281 131.7L335 148.4L333 93.7Z" fill="#380241" stroke="#380241"></path><path d="M254 221.1L199 251.3L254 270Z" fill="#8e12a4" stroke="#8e12a4"></path><path d="M453 600L500 600L488 529.3Z" fill="#ce21ed" stroke="#ce21ed"></path><path d="M550 559.1L604 600L586 544.3Z" fill="#700b81" stroke="#700b81"></path><path d="M500 600L517 600L488 529.3Z" fill="#530560" stroke="#530560"></path><path d="M788 311L744 301L744 377.6Z" fill="#be1dda" stroke="#be1dda"></path><path d="M744 301L778 256.1L727 298.9Z" fill="#7f0e92" stroke="#7f0e92"></path><path d="M788 311L744 377.6L828 380.7Z" fill="#ce21ed" stroke="#ce21ed"></path><path d="M783 305.9L778 256.1L744 301Z" fill="#8e12a4" stroke="#8e12a4"></path><path d="M738 203.4L757 184.4L719 192.3Z" fill="#ce21ed" stroke="#ce21ed"></path><path d="M278 48.9L281 131.7L333 93.7Z" fill="#be1dda" stroke="#be1dda"></path><path d="M778 256.1L763 207.3L738 203.4Z" fill="#8e12a4" stroke="#8e12a4"></path><path d="M245 156.6L244 184.4L258 170.3Z" fill="#ce21ed" stroke="#ce21ed"></path><path d="M258 170.3L244 184.4L268 201.4Z" fill="#700b81" stroke="#700b81"></path><path d="M426 600L453 600L432 583.1Z" fill="#380241" stroke="#380241"></path><path d="M432 583.1L453 600L488 529.3Z" fill="#530560" stroke="#530560"></path><path d="M778 256.1L766 208.4L763 207.3Z" fill="#610870" stroke="#610870"></path><path d="M763 207.3L757 184.4L738 203.4Z" fill="#ce21ed" stroke="#ce21ed"></path><path d="M783 305.9L806 279L778 256.1Z" fill="#9e15b5" stroke="#9e15b5"></path><path d="M828 380.7L744 377.6L746 381.7Z" fill="#700b81" stroke="#700b81"></path><path d="M766 208.4L757 184.4L763 207.3Z" fill="#9e15b5" stroke="#9e15b5"></path><path d="M757 184.4L714 120.6L719 192.3Z" fill="#9e15b5" stroke="#9e15b5"></path><path d="M221 296L217 392.7L258 315.9Z" fill="#9e15b5" stroke="#9e15b5"></path><path d="M272 482.4L279 509.1L311 513.4Z" fill="#9e15b5" stroke="#9e15b5"></path><path d="M390 589.1L378 515.1L326 558.3Z" fill="#ae19c8" stroke="#ae19c8"></path><path d="M275 517.3L279 509.1L272 482.4Z" fill="#380241" stroke="#380241"></path><path d="M679 530.3L734 490.3L725 452.4Z" fill="#9e15b5" stroke="#9e15b5"></path><path d="M725 452.4L794 436.4L746 381.7Z" fill="#9e15b5" stroke="#9e15b5"></path><path d="M378 515.1L337 521.4L326 558.3Z" fill="#7f0e92" stroke="#7f0e92"></path><path d="M326 558.3L337 521.4L311 513.4Z" fill="#530560" stroke="#530560"></path><path d="M275 517.3L326 558.3L311 513.4Z" fill="#7f0e92" stroke="#7f0e92"></path><path d="M725 557.1L709 527.3L679 530.3Z" fill="#380241" stroke="#380241"></path><path d="M679 530.3L709 527.3L734 490.3Z" fill="#530560" stroke="#530560"></path><path d="M739 94.6L713 109.7L714 120.6Z" fill="#7f0e92" stroke="#7f0e92"></path><path d="M714 120.6L713 109.7L655 145.6Z" fill="#9e15b5" stroke="#9e15b5"></path><path d="M281 131.7L245 156.6L258 170.3Z" fill="#450350" stroke="#450350"></path><path d="M244 184.4L199 251.3L254 221.1Z" fill="#530560" stroke="#530560"></path><path d="M191 132.6L245 156.6L243 61.7Z" fill="#610870" stroke="#610870"></path><path d="M257 529.3L275 517.3L272 482.4Z" fill="#700b81" stroke="#700b81"></path><path d="M279 509.1L275 517.3L311 513.4Z" fill="#ae19c8" stroke="#ae19c8"></path><path d="M517 600L604 600L550 559.1Z" fill="#380241" stroke="#380241"></path><path d="M421 13.9L419 107.7L447 82.9Z" fill="#9e15b5" stroke="#9e15b5"></path><path d="M337 86.9L278 48.9L333 93.7Z" fill="#9e15b5" stroke="#9e15b5"></path><path d="M179 163.6L199 251.3L244 184.4Z" fill="#9e15b5" stroke="#9e15b5"></path><path d="M221 296L153 369.9L217 392.7Z" fill="#380241" stroke="#380241"></path><path d="M604 600L619 600L593 544.3Z" fill="#700b81" stroke="#700b81"></path><path d="M713 109.7L688 71.7L652 83.9Z" fill="#610870" stroke="#610870"></path><path d="M600 0L609 84.7L633 82.9Z" fill="#ce21ed" stroke="#ce21ed"></path><path d="M896 343L806 279L788 311Z" fill="#ae19c8" stroke="#ae19c8"></path><path d="M788 311L806 279L783 305.9Z" fill="#700b81" stroke="#700b81"></path><path d="M778 256.1L844 235.1L766 208.4Z" fill="#ce21ed" stroke="#ce21ed"></path><path d="M848 176.3L804 120.7L757 184.4Z" fill="#ae19c8" stroke="#ae19c8"></path><path d="M600 0L633 82.9L661 0Z" fill="#450350" stroke="#450350"></path><path d="M483 47.9L421 13.9L447 82.9Z" fill="#450350" stroke="#450350"></path><path d="M463 0L421 13.9L483 47.9Z" fill="#be1dda" stroke="#be1dda"></path><path d="M199 251.3L186 291L221 296Z" fill="#9e15b5" stroke="#9e15b5"></path><path d="M524 0L522 0L514 62.7Z" fill="#7f0e92" stroke="#7f0e92"></path><path d="M541 -0.1L524 0L514 62.7Z" fill="#8e12a4" stroke="#8e12a4"></path><path d="M203 486.4L213 456.6L162 469.3Z" fill="#700b81" stroke="#700b81"></path><path d="M217 392.7L213 456.6L257 417.7Z" fill="#450350" stroke="#450350"></path><path d="M522 0L463 0L483 47.9Z" fill="#610870" stroke="#610870"></path><path d="M808 454.6L794 436.4L734 490.3Z" fill="#450350" stroke="#450350"></path><path d="M734 490.3L794 436.4L725 452.4Z" fill="#610870" stroke="#610870"></path><path d="M574 15.9L541 -0.1L514 62.7Z" fill="#7f0e92" stroke="#7f0e92"></path><path d="M524 0L541 -0.1L522 0Z" fill="#ae19c8" stroke="#ae19c8"></path><path d="M522 0L541 -0.1L463 0Z" fill="#380241" stroke="#380241"></path><path d="M209 481.3L257 529.3L272 482.4Z" fill="#be1dda" stroke="#be1dda"></path><path d="M275 517.3L257 529.3L326 558.3Z" fill="#530560" stroke="#530560"></path><path d="M326 558.3L344 600L390 589.1Z" fill="#530560" stroke="#530560"></path><path d="M319 600L344 600L326 558.3Z" fill="#be1dda" stroke="#be1dda"></path><path d="M390 589.1L344 600L426 600Z" fill="#7f0e92" stroke="#7f0e92"></path><path d="M600 0L567 0L574 15.9Z" fill="#ce21ed" stroke="#ce21ed"></path><path d="M574 15.9L567 0L541 -0.1Z" fill="#380241" stroke="#380241"></path><path d="M463 0L423 0L421 13.9Z" fill="#7f0e92" stroke="#7f0e92"></path><path d="M421 13.9L361 0L344 51.9Z" fill="#ce21ed" stroke="#ce21ed"></path><path d="M76 -7.1L423 0L463 0Z" fill="#450350" stroke="#450350"></path><path d="M713 109.7L739 94.6L688 71.7Z" fill="#380241" stroke="#380241"></path><path d="M661 0L633 82.9L652 83.9Z" fill="#ae19c8" stroke="#ae19c8"></path><path d="M757 184.4L739 94.6L714 120.6Z" fill="#700b81" stroke="#700b81"></path><path d="M804 120.7L739 94.6L757 184.4Z" fill="#9e15b5" stroke="#9e15b5"></path><path d="M794 436.4L813 413.7L746 381.7Z" fill="#450350" stroke="#450350"></path><path d="M673 600L725 557.1L679 530.3Z" fill="#9e15b5" stroke="#9e15b5"></path><path d="M709 527.3L725 557.1L734 490.3Z" fill="#ce21ed" stroke="#ce21ed"></path><path d="M794 436.4L808 454.6L813 413.7Z" fill="#610870" stroke="#610870"></path><path d="M567 0L600 0L541 -0.1Z" fill="#380241" stroke="#380241"></path><path d="M661 0L652 83.9L688 71.7Z" fill="#700b81" stroke="#700b81"></path><path d="M619 600L673 600L679 530.3Z" fill="#530560" stroke="#530560"></path><path d="M203 486.4L209 481.3L213 456.6Z" fill="#8e12a4" stroke="#8e12a4"></path><path d="M213 456.6L209 481.3L272 482.4Z" fill="#380241" stroke="#380241"></path><path d="M813 413.7L828 380.7L746 381.7Z" fill="#ce21ed" stroke="#ce21ed"></path><path d="M307 600L326 558.3L289 604.1Z" fill="#be1dda" stroke="#be1dda"></path><path d="M307 600L319 600L326 558.3Z" fill="#380241" stroke="#380241"></path><path d="M815 515.1L808 454.6L734 490.3Z" fill="#7f0e92" stroke="#7f0e92"></path><path d="M859 408.7L855 380.9L828 380.7Z" fill="#700b81" stroke="#700b81"></path><path d="M145 406.6L213 456.6L217 392.7Z" fill="#450350" stroke="#450350"></path><path d="M209 481.3L195 504.4L257 529.3Z" fill="#7f0e92" stroke="#7f0e92"></path><path d="M289 604.1L326 558.3L257 529.3Z" fill="#530560" stroke="#530560"></path><path d="M199 251.3L156 296.1L186 291Z" fill="#8e12a4" stroke="#8e12a4"></path><path d="M186 291L153 369.9L221 296Z" fill="#380241" stroke="#380241"></path><path d="M144 294.9L156 296.1L139 212.3Z" fill="#610870" stroke="#610870"></path><path d="M76 -7.1L361 0L423 0Z" fill="#9e15b5" stroke="#9e15b5"></path><path d="M423 0L361 0L421 13.9Z" fill="#ce21ed" stroke="#ce21ed"></path><path d="M344 51.9L278 48.9L337 86.9Z" fill="#ce21ed" stroke="#ce21ed"></path><path d="M314 0L278 48.9L344 51.9Z" fill="#7f0e92" stroke="#7f0e92"></path><path d="M245 156.6L179 163.6L244 184.4Z" fill="#610870" stroke="#610870"></path><path d="M900 280L841 254.1L806 279Z" fill="#ae19c8" stroke="#ae19c8"></path><path d="M806 279L841 254.1L778 256.1Z" fill="#7f0e92" stroke="#7f0e92"></path><path d="M156 296.1L153 369.9L186 291Z" fill="#be1dda" stroke="#be1dda"></path><path d="M191 132.6L179 163.6L245 156.6Z" fill="#530560" stroke="#530560"></path><path d="M900 252.1L844 235.1L841 254.1Z" fill="#9e15b5" stroke="#9e15b5"></path><path d="M841 254.1L844 235.1L778 256.1Z" fill="#8e12a4" stroke="#8e12a4"></path><path d="M127 287L144 294.9L139 212.3Z" fill="#610870" stroke="#610870"></path><path d="M128 332L137 359.7L153 369.9Z" fill="#530560" stroke="#530560"></path><path d="M704 0L661 0L688 71.7Z" fill="#380241" stroke="#380241"></path><path d="M600 0L76 -7.1L541 -0.1Z" fill="#8e12a4" stroke="#8e12a4"></path><path d="M245 594.1L289 604.1L257 529.3Z" fill="#450350" stroke="#450350"></path><path d="M307 600L289 604.1L319 600Z" fill="#be1dda" stroke="#be1dda"></path><path d="M319 600L289 604.1L344 600Z" fill="#610870" stroke="#610870"></path><path d="M344 600L289 604.1L426 600Z" fill="#700b81" stroke="#700b81"></path><path d="M426 600L289 604.1L453 600Z" fill="#9e15b5" stroke="#9e15b5"></path><path d="M453 600L289 604.1L500 600Z" fill="#450350" stroke="#450350"></path><path d="M500 600L289 604.1L517 600Z" fill="#ae19c8" stroke="#ae19c8"></path><path d="M517 600L289 604.1L604 600Z" fill="#380241" stroke="#380241"></path><path d="M604 600L289 604.1L619 600Z" fill="#450350" stroke="#450350"></path><path d="M619 600L289 604.1L673 600Z" fill="#380241" stroke="#380241"></path><path d="M361 0L335 0L344 51.9Z" fill="#9e15b5" stroke="#9e15b5"></path><path d="M76 -7.1L335 0L361 0Z" fill="#ce21ed" stroke="#ce21ed"></path><path d="M162 469.3L195 504.4L203 486.4Z" fill="#9e15b5" stroke="#9e15b5"></path><path d="M203 486.4L195 504.4L209 481.3Z" fill="#9e15b5" stroke="#9e15b5"></path><path d="M243 61.7L245 156.6L281 131.7Z" fill="#530560" stroke="#530560"></path><path d="M274 0L243 61.7L278 48.9Z" fill="#be1dda" stroke="#be1dda"></path><path d="M278 48.9L243 61.7L281 131.7Z" fill="#be1dda" stroke="#be1dda"></path><path d="M859 408.7L828 380.7L813 413.7Z" fill="#450350" stroke="#450350"></path><path d="M828 380.7L855 380.9L788 311Z" fill="#ce21ed" stroke="#ce21ed"></path><path d="M848 176.3L757 184.4L766 208.4Z" fill="#700b81" stroke="#700b81"></path><path d="M733 18.9L704 0L688 71.7Z" fill="#9e15b5" stroke="#9e15b5"></path><path d="M128 332L153 369.9L156 296.1Z" fill="#700b81" stroke="#700b81"></path><path d="M153 369.9L145 406.6L217 392.7Z" fill="#7f0e92" stroke="#7f0e92"></path><path d="M137 359.7L145 406.6L153 369.9Z" fill="#380241" stroke="#380241"></path><path d="M76 -7.1L314 0L335 0Z" fill="#450350" stroke="#450350"></path><path d="M335 0L314 0L344 51.9Z" fill="#700b81" stroke="#700b81"></path><path d="M673 600L733 600L725 557.1Z" fill="#ae19c8" stroke="#ae19c8"></path><path d="M725 557.1L815 515.1L734 490.3Z" fill="#8e12a4" stroke="#8e12a4"></path><path d="M873 443.4L859 408.7L813 413.7Z" fill="#9e15b5" stroke="#9e15b5"></path><path d="M289 604.1L733 600L673 600Z" fill="#ae19c8" stroke="#ae19c8"></path><path d="M145 406.6L162 469.3L213 456.6Z" fill="#9e15b5" stroke="#9e15b5"></path><path d="M110 415.7L138 471.6L145 406.6Z" fill="#9e15b5" stroke="#9e15b5"></path><path d="M144 294.9L128 332L156 296.1Z" fill="#ce21ed" stroke="#ce21ed"></path><path d="M127 287L128 332L144 294.9Z" fill="#ce21ed" stroke="#ce21ed"></path><path d="M873 443.4L813 413.7L808 454.6Z" fill="#530560" stroke="#530560"></path><path d="M856 158.6L848 176.3L900 192.3Z" fill="#700b81" stroke="#700b81"></path><path d="M139 212.3L199 251.3L179 163.6Z" fill="#450350" stroke="#450350"></path><path d="M139 212.3L156 296.1L199 251.3Z" fill="#610870" stroke="#610870"></path><path d="M816 540.3L815 515.1L725 557.1Z" fill="#9e15b5" stroke="#9e15b5"></path><path d="M119 207.4L139 212.3L127 144.6Z" fill="#9e15b5" stroke="#9e15b5"></path><path d="M844 235.1L848 176.3L766 208.4Z" fill="#ce21ed" stroke="#ce21ed"></path><path d="M848 176.3L844 235.1L900 211.4Z" fill="#380241" stroke="#380241"></path><path d="M195 504.4L245 594.1L257 529.3Z" fill="#530560" stroke="#530560"></path><path d="M179 600L245 594.1L195 504.4Z" fill="#610870" stroke="#610870"></path><path d="M733 18.9L688 71.7L739 94.6Z" fill="#be1dda" stroke="#be1dda"></path><path d="M661 0L76 -7.1L600 0Z" fill="#ce21ed" stroke="#ce21ed"></path><path d="M754 15.9L733 18.9L739 94.6Z" fill="#ae19c8" stroke="#ae19c8"></path><path d="M754 15.9L739 94.6L800 38.7Z" fill="#8e12a4" stroke="#8e12a4"></path><path d="M289 604.1L750 600L733 600Z" fill="#ce21ed" stroke="#ce21ed"></path><path d="M733 600L750 600L725 557.1Z" fill="#8e12a4" stroke="#8e12a4"></path><path d="M274 0L210 64.9L243 61.7Z" fill="#ae19c8" stroke="#ae19c8"></path><path d="M243 61.7L210 64.9L191 132.6Z" fill="#450350" stroke="#450350"></path><path d="M127 144.6L139 212.3L179 163.6Z" fill="#8e12a4" stroke="#8e12a4"></path><path d="M859 531.1L845 481.4L815 515.1Z" fill="#ce21ed" stroke="#ce21ed"></path><path d="M815 515.1L845 481.4L808 454.6Z" fill="#530560" stroke="#530560"></path><path d="M750 600L816 540.3L725 557.1Z" fill="#610870" stroke="#610870"></path><path d="M76 -7.1L274 0L314 0Z" fill="#be1dda" stroke="#be1dda"></path><path d="M314 0L274 0L278 48.9Z" fill="#610870" stroke="#610870"></path><path d="M896 343L788 311L855 380.9Z" fill="#700b81" stroke="#700b81"></path><path d="M848 176.3L856 158.6L804 120.7Z" fill="#ae19c8" stroke="#ae19c8"></path><path d="M145 406.6L138 471.6L162 469.3Z" fill="#ce21ed" stroke="#ce21ed"></path><path d="M162 469.3L139 483.3L195 504.4Z" fill="#700b81" stroke="#700b81"></path><path d="M110 415.7L145 406.6L137 359.7Z" fill="#ce21ed" stroke="#ce21ed"></path><path d="M823 77.7L739 94.6L804 120.7Z" fill="#ae19c8" stroke="#ae19c8"></path><path d="M733 18.9L754 15.9L704 0Z" fill="#610870" stroke="#610870"></path><path d="M889 448.6L873 443.4L900 466.6Z" fill="#530560" stroke="#530560"></path><path d="M845 481.4L873 443.4L808 454.6Z" fill="#530560" stroke="#530560"></path><path d="M900 373.9L896 343L855 380.9Z" fill="#530560" stroke="#530560"></path><path d="M147 123.4L179 163.6L191 132.6Z" fill="#450350" stroke="#450350"></path><path d="M139 212.3L104 217.1L127 287Z" fill="#8e12a4" stroke="#8e12a4"></path><path d="M102 427.4L110 415.7L79 396.6Z" fill="#700b81" stroke="#700b81"></path><path d="M79 396.6L110 415.7L137 359.7Z" fill="#700b81" stroke="#700b81"></path><path d="M138 471.6L139 483.3L162 469.3Z" fill="#9e15b5" stroke="#9e15b5"></path><path d="M900 373.9L855 380.9L900 406.7Z" fill="#450350" stroke="#450350"></path><path d="M137 359.7L128 332L68 361.9Z" fill="#7f0e92" stroke="#7f0e92"></path><path d="M138 471.6L97 480.3L139 483.3Z" fill="#530560" stroke="#530560"></path><path d="M150 97.6L147 123.4L191 132.6Z" fill="#380241" stroke="#380241"></path><path d="M150 97.6L191 132.6L210 64.9Z" fill="#ae19c8" stroke="#ae19c8"></path><path d="M831 82.6L823 77.7L804 120.7Z" fill="#450350" stroke="#450350"></path><path d="M896 343L900 280L806 279Z" fill="#7f0e92" stroke="#7f0e92"></path><path d="M900 406.7L855 380.9L859 408.7Z" fill="#610870" stroke="#610870"></path><path d="M896 343L900 373.9L900 280Z" fill="#ae19c8" stroke="#ae19c8"></path><path d="M900 118.6L831 82.6L856 158.6Z" fill="#9e15b5" stroke="#9e15b5"></path><path d="M856 158.6L831 82.6L804 120.7Z" fill="#ae19c8" stroke="#ae19c8"></path><path d="M823 77.7L800 38.7L739 94.6Z" fill="#450350" stroke="#450350"></path><path d="M900 280L900 252.1L841 254.1Z" fill="#700b81" stroke="#700b81"></path><path d="M92 207.3L104 217.1L119 207.4Z" fill="#ce21ed" stroke="#ce21ed"></path><path d="M119 207.4L104 217.1L139 212.3Z" fill="#8e12a4" stroke="#8e12a4"></path><path d="M813 0L800 38.7L855 21.9Z" fill="#700b81" stroke="#700b81"></path><path d="M147 123.4L127 144.6L179 163.6Z" fill="#7f0e92" stroke="#7f0e92"></path><path d="M873 443.4L900 406.7L859 408.7Z" fill="#ce21ed" stroke="#ce21ed"></path><path d="M889 448.6L900 406.7L873 443.4Z" fill="#450350" stroke="#450350"></path><path d="M139 81.7L150 97.6L210 64.9Z" fill="#ce21ed" stroke="#ce21ed"></path><path d="M147 123.4L102 86.7L127 144.6Z" fill="#ae19c8" stroke="#ae19c8"></path><path d="M900 452.4L889 448.6L900 466.6Z" fill="#7f0e92" stroke="#7f0e92"></path><path d="M79 396.6L137 359.7L68 361.9Z" fill="#380241" stroke="#380241"></path><path d="M110 415.7L102 427.4L138 471.6Z" fill="#450350" stroke="#450350"></path><path d="M900 252.1L900 211.4L844 235.1Z" fill="#ae19c8" stroke="#ae19c8"></path><path d="M102 517.4L137 528.1L139 483.3Z" fill="#380241" stroke="#380241"></path><path d="M139 483.3L137 528.1L195 504.4Z" fill="#530560" stroke="#530560"></path><path d="M844 600L859 531.1L816 540.3Z" fill="#530560" stroke="#530560"></path><path d="M816 540.3L859 531.1L815 515.1Z" fill="#ae19c8" stroke="#ae19c8"></path><path d="M900 211.4L900 192.3L848 176.3Z" fill="#ae19c8" stroke="#ae19c8"></path><path d="M900 252.1L905 209.3L900 211.4Z" fill="#530560" stroke="#530560"></path><path d="M900 211.4L905 209.3L900 192.3Z" fill="#450350" stroke="#450350"></path><path d="M900 280L905 209.3L900 252.1Z" fill="#610870" stroke="#610870"></path><path d="M900 373.9L905 209.3L900 280Z" fill="#7f0e92" stroke="#7f0e92"></path><path d="M905 529.3L905 209.3L900 373.9Z" fill="#380241" stroke="#380241"></path><path d="M127 144.6L92 207.3L119 207.4Z" fill="#ae19c8" stroke="#ae19c8"></path><path d="M104 217.1L77 224.3L127 287Z" fill="#ae19c8" stroke="#ae19c8"></path><path d="M65 197.4L92 207.3L127 144.6Z" fill="#380241" stroke="#380241"></path><path d="M900 466.6L873 443.4L845 481.4Z" fill="#be1dda" stroke="#be1dda"></path><path d="M889 448.6L900 452.4L900 406.7Z" fill="#610870" stroke="#610870"></path><path d="M900 406.7L905 529.3L900 373.9Z" fill="#9e15b5" stroke="#9e15b5"></path><path d="M813 0L785 0L800 38.7Z" fill="#be1dda" stroke="#be1dda"></path><path d="M800 38.7L785 0L754 15.9Z" fill="#610870" stroke="#610870"></path><path d="M754 15.9L785 0L704 0Z" fill="#9e15b5" stroke="#9e15b5"></path><path d="M704 0L76 -7.1L661 0Z" fill="#700b81" stroke="#700b81"></path><path d="M800 38.7L823 77.7L855 21.9Z" fill="#be1dda" stroke="#be1dda"></path><path d="M245 594.1L179 600L289 604.1Z" fill="#8e12a4" stroke="#8e12a4"></path><path d="M137 528.1L179 600L195 504.4Z" fill="#9e15b5" stroke="#9e15b5"></path><path d="M68 361.9L128 332L127 287Z" fill="#8e12a4" stroke="#8e12a4"></path><path d="M102 427.4L97 480.3L138 471.6Z" fill="#ce21ed" stroke="#ce21ed"></path><path d="M859 531.1L900 466.6L845 481.4Z" fill="#530560" stroke="#530560"></path><path d="M900 452.4L905 529.3L900 406.7Z" fill="#ae19c8" stroke="#ae19c8"></path><path d="M144 5.9L139 81.7L210 64.9Z" fill="#be1dda" stroke="#be1dda"></path><path d="M150 97.6L102 86.7L147 123.4Z" fill="#610870" stroke="#610870"></path><path d="M905 209.3L898 152.4L900 192.3Z" fill="#380241" stroke="#380241"></path><path d="M900 192.3L898 152.4L856 158.6Z" fill="#450350" stroke="#450350"></path><path d="M65 197.4L77 224.3L92 207.3Z" fill="#7f0e92" stroke="#7f0e92"></path><path d="M92 207.3L77 224.3L104 217.1Z" fill="#8e12a4" stroke="#8e12a4"></path><path d="M39 263.1L68 361.9L127 287Z" fill="#8e12a4" stroke="#8e12a4"></path><path d="M39 396.6L97 480.3L102 427.4Z" fill="#380241" stroke="#380241"></path><path d="M137 528.1L167 600L179 600Z" fill="#610870" stroke="#610870"></path><path d="M39 396.6L102 427.4L79 396.6Z" fill="#610870" stroke="#610870"></path><path d="M158 599.1L167 600L137 528.1Z" fill="#8e12a4" stroke="#8e12a4"></path><path d="M179 600L167 600L289 604.1Z" fill="#610870" stroke="#610870"></path><path d="M138 600L158 599.1L137 528.1Z" fill="#be1dda" stroke="#be1dda"></path><path d="M78 534.3L102 517.4L97 480.3Z" fill="#7f0e92" stroke="#7f0e92"></path><path d="M97 480.3L102 517.4L139 483.3Z" fill="#8e12a4" stroke="#8e12a4"></path><path d="M855 21.9L823 77.7L831 82.6Z" fill="#450350" stroke="#450350"></path><path d="M785 0L76 -7.1L704 0Z" fill="#610870" stroke="#610870"></path><path d="M289 604.1L844 600L750 600Z" fill="#ae19c8" stroke="#ae19c8"></path><path d="M750 600L844 600L816 540.3Z" fill="#700b81" stroke="#700b81"></path><path d="M859 531.1L905 529.3L900 466.6Z" fill="#610870" stroke="#610870"></path><path d="M905 209.3L900 118.6L898 152.4Z" fill="#ae19c8" stroke="#ae19c8"></path><path d="M898 152.4L900 118.6L856 158.6Z" fill="#610870" stroke="#610870"></path><path d="M16 150.6L65 197.4L127 144.6Z" fill="#ce21ed" stroke="#ce21ed"></path><path d="M77 224.3L39 263.1L127 287Z" fill="#700b81" stroke="#700b81"></path><path d="M844 600L882 563.1L859 531.1Z" fill="#be1dda" stroke="#be1dda"></path><path d="M844 600L857 600L882 563.1Z" fill="#ce21ed" stroke="#ce21ed"></path><path d="M289 604.1L857 600L844 600Z" fill="#530560" stroke="#530560"></path><path d="M900 549.3L859 531.1L882 563.1Z" fill="#7f0e92" stroke="#7f0e92"></path><path d="M900 549.3L905 529.3L859 531.1Z" fill="#530560" stroke="#530560"></path><path d="M900 466.6L905 529.3L900 452.4Z" fill="#ae19c8" stroke="#ae19c8"></path><path d="M85 35.9L102 86.7L139 81.7Z" fill="#530560" stroke="#530560"></path><path d="M139 81.7L102 86.7L150 97.6Z" fill="#9e15b5" stroke="#9e15b5"></path><path d="M112 600L138 600L137 528.1Z" fill="#ce21ed" stroke="#ce21ed"></path><path d="M158 599.1L138 600L167 600Z" fill="#450350" stroke="#450350"></path><path d="M167 600L138 600L289 604.1Z" fill="#610870" stroke="#610870"></path><path d="M883 31.9L855 21.9L831 82.6Z" fill="#700b81" stroke="#700b81"></path><path d="M44 220.1L77 224.3L65 197.4Z" fill="#700b81" stroke="#700b81"></path><path d="M44 220.1L39 263.1L77 224.3Z" fill="#be1dda" stroke="#be1dda"></path><path d="M68 361.9L39 396.6L79 396.6Z" fill="#380241" stroke="#380241"></path><path d="M900 588.1L900 549.3L882 563.1Z" fill="#380241" stroke="#380241"></path><path d="M6 206.4L44 220.1L65 197.4Z" fill="#700b81" stroke="#700b81"></path><path d="M2 370.9L39 396.6L68 361.9Z" fill="#380241" stroke="#380241"></path><path d="M102 517.4L78 534.3L137 528.1Z" fill="#450350" stroke="#450350"></path><path d="M76 -7.1L150 0L274 0Z" fill="#380241" stroke="#380241"></path><path d="M274 0L150 0L210 64.9Z" fill="#ae19c8" stroke="#ae19c8"></path><path d="M150 0L144 5.9L210 64.9Z" fill="#530560" stroke="#530560"></path><path d="M68 543.1L78 534.3L5 502.4Z" fill="#380241" stroke="#380241"></path><path d="M900 53.9L883 31.9L831 82.6Z" fill="#ce21ed" stroke="#ce21ed"></path><path d="M855 21.9L891 0L813 0Z" fill="#380241" stroke="#380241"></path><path d="M905 209.3L900 53.9L900 118.6Z" fill="#ae19c8" stroke="#ae19c8"></path><path d="M900 118.6L900 53.9L831 82.6Z" fill="#380241" stroke="#380241"></path><path d="M78 534.3L112 600L137 528.1Z" fill="#ae19c8" stroke="#ae19c8"></path><path d="M138 600L112 600L289 604.1Z" fill="#8e12a4" stroke="#8e12a4"></path><path d="M0 229.3L20 277L39 263.1Z" fill="#ae19c8" stroke="#ae19c8"></path><path d="M39 263.1L20 277L68 361.9Z" fill="#610870" stroke="#610870"></path><path d="M905 209.3L900 47.7L900 53.9Z" fill="#380241" stroke="#380241"></path><path d="M900 53.9L900 47.7L883 31.9Z" fill="#ae19c8" stroke="#ae19c8"></path><path d="M857 600L900 588.1L882 563.1Z" fill="#450350" stroke="#450350"></path><path d="M900 549.3L900 588.1L905 529.3Z" fill="#9e15b5" stroke="#9e15b5"></path><path d="M5 502.4L78 534.3L97 480.3Z" fill="#ae19c8" stroke="#ae19c8"></path><path d="M78 534.3L70 548.1L112 600Z" fill="#610870" stroke="#610870"></path><path d="M68 543.1L70 548.1L78 534.3Z" fill="#8e12a4" stroke="#8e12a4"></path><path d="M289 604.1L900 600L857 600Z" fill="#450350" stroke="#450350"></path><path d="M857 600L900 600L900 588.1Z" fill="#380241" stroke="#380241"></path><path d="M900 588.1L900 600L905 529.3Z" fill="#610870" stroke="#610870"></path><path d="M0 301L1 341.7L68 361.9Z" fill="#be1dda" stroke="#be1dda"></path><path d="M39 396.6L0 473.6L97 480.3Z" fill="#7f0e92" stroke="#7f0e92"></path><path d="M0 229.3L0 301L20 277Z" fill="#ae19c8" stroke="#ae19c8"></path><path d="M20 277L0 301L68 361.9Z" fill="#530560" stroke="#530560"></path><path d="M0 229.3L39 263.1L44 220.1Z" fill="#8e12a4" stroke="#8e12a4"></path><path d="M1 341.7L2 370.9L68 361.9Z" fill="#450350" stroke="#450350"></path><path d="M144 5.9L85 35.9L139 81.7Z" fill="#8e12a4" stroke="#8e12a4"></path><path d="M0 169.4L6 206.4L65 197.4Z" fill="#8e12a4" stroke="#8e12a4"></path><path d="M89 0L85 35.9L144 5.9Z" fill="#be1dda" stroke="#be1dda"></path><path d="M0 301L0 374.9L1 341.7Z" fill="#700b81" stroke="#700b81"></path><path d="M1 341.7L0 374.9L2 370.9Z" fill="#8e12a4" stroke="#8e12a4"></path><path d="M2 370.9L0 384.7L39 396.6Z" fill="#530560" stroke="#530560"></path><path d="M68 543.1L0 555.3L70 548.1Z" fill="#be1dda" stroke="#be1dda"></path><path d="M0 374.9L0 384.7L2 370.9Z" fill="#9e15b5" stroke="#9e15b5"></path><path d="M900 0L891 0L883 31.9Z" fill="#8e12a4" stroke="#8e12a4"></path><path d="M883 31.9L891 0L855 21.9Z" fill="#9e15b5" stroke="#9e15b5"></path><path d="M813 0L76 -7.1L785 0Z" fill="#530560" stroke="#530560"></path><path d="M16 150.6L127 144.6L102 86.7Z" fill="#450350" stroke="#450350"></path><path d="M6 206.4L0 229.3L44 220.1Z" fill="#ae19c8" stroke="#ae19c8"></path><path d="M-2 175.3L0 211.1L6 206.4Z" fill="#380241" stroke="#380241"></path><path d="M6 206.4L0 211.1L0 229.3Z" fill="#530560" stroke="#530560"></path><path d="M0 107.7L16 150.6L102 86.7Z" fill="#450350" stroke="#450350"></path><path d="M905 209.3L900 0L900 47.7Z" fill="#610870" stroke="#610870"></path><path d="M900 47.7L900 0L883 31.9Z" fill="#7f0e92" stroke="#7f0e92"></path><path d="M891 0L76 -7.1L813 0Z" fill="#530560" stroke="#530560"></path><path d="M85 35.9L57 53.7L102 86.7Z" fill="#ce21ed" stroke="#ce21ed"></path><path d="M150 0L89 0L144 5.9Z" fill="#450350" stroke="#450350"></path><path d="M85 35.9L78 0L57 53.7Z" fill="#be1dda" stroke="#be1dda"></path><path d="M76 -7.1L89 0L150 0Z" fill="#be1dda" stroke="#be1dda"></path><path d="M0 107.7L0 169.4L16 150.6Z" fill="#9e15b5" stroke="#9e15b5"></path><path d="M16 150.6L0 169.4L65 197.4Z" fill="#610870" stroke="#610870"></path><path d="M0 169.4L-2 175.3L6 206.4Z" fill="#9e15b5" stroke="#9e15b5"></path><path d="M0 211.1L-2 175.3L0 229.3Z" fill="#9e15b5" stroke="#9e15b5"></path><path d="M0 229.3L-2 175.3L0 301Z" fill="#610870" stroke="#610870"></path><path d="M0 301L-2 175.3L0 374.9Z" fill="#380241" stroke="#380241"></path><path d="M0 374.9L-4 600L0 384.7Z" fill="#610870" stroke="#610870"></path><path d="M76 -7.1L84 0L89 0Z" fill="#450350" stroke="#450350"></path><path d="M89 0L84 0L85 35.9Z" fill="#ae19c8" stroke="#ae19c8"></path><path d="M7 11.9L45 57.7L57 53.7Z" fill="#be1dda" stroke="#be1dda"></path><path d="M57 53.7L45 57.7L102 86.7Z" fill="#7f0e92" stroke="#7f0e92"></path><path d="M-4 600L0 473.6L0 384.7Z" fill="#9e15b5" stroke="#9e15b5"></path><path d="M0 384.7L0 473.6L39 396.6Z" fill="#7f0e92" stroke="#7f0e92"></path><path d="M70 548.1L0 600L112 600Z" fill="#8e12a4" stroke="#8e12a4"></path><path d="M-4 600L0 481.4L0 473.6Z" fill="#530560" stroke="#530560"></path><path d="M0 473.6L0 481.4L97 480.3Z" fill="#450350" stroke="#450350"></path><path d="M76 -7.1L78 0L84 0Z" fill="#be1dda" stroke="#be1dda"></path><path d="M84 0L78 0L85 35.9Z" fill="#700b81" stroke="#700b81"></path><path d="M0 481.4L5 502.4L97 480.3Z" fill="#7f0e92" stroke="#7f0e92"></path><path d="M541 -0.1L76 -7.1L463 0Z" fill="#450350" stroke="#450350"></path><path d="M78 0L7 11.9L57 53.7Z" fill="#ce21ed" stroke="#ce21ed"></path><path d="M900 0L76 -7.1L891 0Z" fill="#7f0e92" stroke="#7f0e92"></path><path d="M0 88.6L0 107.7L45 57.7Z" fill="#be1dda" stroke="#be1dda"></path><path d="M45 57.7L0 107.7L102 86.7Z" fill="#380241" stroke="#380241"></path><path d="M0 169.4L0 107.7L-2 175.3Z" fill="#530560" stroke="#530560"></path><path d="M0 55.9L0 88.6L45 57.7Z" fill="#700b81" stroke="#700b81"></path><path d="M0 107.7L0 88.6L-2 175.3Z" fill="#700b81" stroke="#700b81"></path><path d="M-4 600L0 555.3L0 481.4Z" fill="#700b81" stroke="#700b81"></path><path d="M0 481.4L0 555.3L5 502.4Z" fill="#8e12a4" stroke="#8e12a4"></path><path d="M5 502.4L0 555.3L68 543.1Z" fill="#9e15b5" stroke="#9e15b5"></path><path d="M7 11.9L0 55.9L45 57.7Z" fill="#8e12a4" stroke="#8e12a4"></path><path d="M0 88.6L0 55.9L-2 175.3Z" fill="#ce21ed" stroke="#ce21ed"></path><path d="M-4 600L0 578.1L0 555.3Z" fill="#7f0e92" stroke="#7f0e92"></path><path d="M0 555.3L0 578.1L70 548.1Z" fill="#be1dda" stroke="#be1dda"></path><path d="M-4 600L0 600L0 578.1Z" fill="#450350" stroke="#450350"></path><path d="M0 578.1L0 600L70 548.1Z" fill="#9e15b5" stroke="#9e15b5"></path><path d="M112 600L0 600L289 604.1Z" fill="#380241" stroke="#380241"></path><path d="M-2 175.3L-4 600L0 374.9Z" fill="#9e15b5" stroke="#9e15b5"></path><path d="M0 600L-4 600L289 604.1Z" fill="#8e12a4" stroke="#8e12a4"></path><path d="M76 -7.1L7 11.9L78 0Z" fill="#530560" stroke="#530560"></path><path d="M76 -7.1L0 0L7 11.9Z" fill="#8e12a4" stroke="#8e12a4"></path><path d="M7 11.9L0 0L0 55.9Z" fill="#450350" stroke="#450350"></path><path d="M0 55.9L0 0L-2 175.3Z" fill="#9e15b5" stroke="#9e15b5"></path></g></svg>