<svg id="visual" viewBox="0 0 900 600" width="900" height="600" xmlns="http://www.w3.org/2000/svg" xmlns:xlink="http://www.w3.org/1999/xlink" version="1.1"><path d="M0 31L10 36C20 41 40 51 60 58C80 65 100 69 120 69C140 69 160 65 180 64C200 63 220 65 240 59C260 53 280 39 300 41C320 43 340 61 360 65C380 69 400 59 420 58C440 57 460 65 480 62C500 59 520 45 540 44C560 43 580 55 600 57C620 59 640 51 660 50C680 49 700 55 720 52C740 49 760 37 780 37C800 37 820 49 840 52C860 55 880 49 890 46L900 43L900 0L890 0C880 0 860 0 840 0C820 0 800 0 780 0C760 0 740 0 720 0C700 0 680 0 660 0C640 0 620 0 600 0C580 0 560 0 540 0C520 0 500 0 480 0C460 0 440 0 420 0C400 0 380 0 360 0C340 0 320 0 300 0C280 0 260 0 240 0C220 0 200 0 180 0C160 0 140 0 120 0C100 0 80 0 60 0C40 0 20 0 10 0L0 0Z" fill="#e079f6"></path><path d="M0 61L10 67C20 73 40 85 60 95C80 105 100 113 120 114C140 115 160 109 180 104C200 99 220 95 240 91C260 87 280 83 300 87C320 91 340 103 360 106C380 109 400 103 420 106C440 109 460 121 480 115C500 109 520 85 540 78C560 71 580 81 600 84C620 87 640 83 660 86C680 89 700 99 720 93C740 87 760 65 780 63C800 61 820 79 840 88C860 97 880 97 890 97L900 97L900 41L890 44C880 47 860 53 840 50C820 47 800 35 780 35C760 35 740 47 720 50C700 53 680 47 660 48C640 49 620 57 600 55C580 53 560 41 540 42C520 43 500 57 480 60C460 63 440 55 420 56C400 57 380 67 360 63C340 59 320 41 300 39C280 37 260 51 240 57C220 63 200 61 180 62C160 63 140 67 120 67C100 67 80 63 60 56C40 49 20 39 10 34L0 29Z" fill="#dc68f4"></path><path d="M0 103L10 108C20 113 40 123 60 133C80 143 100 153 120 151C140 149 160 135 180 134C200 133 220 145 240 148C260 151 280 145 300 147C320 149 340 159 360 155C380 151 400 133 420 131C440 129 460 143 480 143C500 143 520 129 540 123C560 117 580 119 600 124C620 129 640 137 660 142C680 147 700 149 720 138C740 127 760 103 780 102C800 101 820 123 840 133C860 143 880 141 890 140L900 139L900 95L890 95C880 95 860 95 840 86C820 77 800 59 780 61C760 63 740 85 720 91C700 97 680 87 660 84C640 81 620 85 600 82C580 79 560 69 540 76C520 83 500 107 480 113C460 119 440 107 420 104C400 101 380 107 360 104C340 101 320 89 300 85C280 81 260 85 240 89C220 93 200 97 180 102C160 107 140 113 120 112C100 111 80 103 60 93C40 83 20 71 10 65L0 59Z" fill="#d756f2"></path><path d="M0 121L10 128C20 135 40 149 60 160C80 171 100 179 120 180C140 181 160 175 180 174C200 173 220 177 240 175C260 173 280 165 300 166C320 167 340 177 360 179C380 181 400 175 420 174C440 173 460 177 480 175C500 173 520 165 540 161C560 157 580 157 600 163C620 169 640 181 660 188C680 195 700 197 720 183C740 169 760 139 780 134C800 129 820 149 840 161C860 173 880 177 890 179L900 181L900 137L890 138C880 139 860 141 840 131C820 121 800 99 780 100C760 101 740 125 720 136C700 147 680 145 660 140C640 135 620 127 600 122C580 117 560 115 540 121C520 127 500 141 480 141C460 141 440 127 420 129C400 131 380 149 360 153C340 157 320 147 300 145C280 143 260 149 240 146C220 143 200 131 180 132C160 133 140 147 120 149C100 151 80 141 60 131C40 121 20 111 10 106L0 101Z" fill="#d340ef"></path><path d="M0 157L10 170C20 183 40 209 60 220C80 231 100 227 120 225C140 223 160 223 180 222C200 221 220 219 240 221C260 223 280 229 300 230C320 231 340 227 360 222C380 217 400 211 420 212C440 213 460 221 480 221C500 221 520 213 540 216C560 219 580 233 600 239C620 245 640 243 660 245C680 247 700 253 720 248C740 243 760 227 780 222C800 217 820 223 840 227C860 231 880 233 890 234L900 235L900 179L890 177C880 175 860 171 840 159C820 147 800 127 780 132C760 137 740 167 720 181C700 195 680 193 660 186C640 179 620 167 600 161C580 155 560 155 540 159C520 163 500 171 480 173C460 175 440 171 420 172C400 173 380 179 360 177C340 175 320 165 300 164C280 163 260 171 240 173C220 175 200 171 180 172C160 173 140 179 120 178C100 177 80 169 60 158C40 147 20 133 10 126L0 119Z" fill="#ce21ed"></path><path d="M0 301L10 308C20 315 40 329 60 325C80 321 100 299 120 299C140 299 160 321 180 323C200 325 220 307 240 297C260 287 280 285 300 282C320 279 340 275 360 278C380 281 400 291 420 302C440 313 460 325 480 319C500 313 520 289 540 291C560 293 580 321 600 336C620 351 640 353 660 356C680 359 700 363 720 356C740 349 760 331 780 322C800 313 820 313 840 317C860 321 880 329 890 333L900 337L900 233L890 232C880 231 860 229 840 225C820 221 800 215 780 220C760 225 740 241 720 246C700 251 680 245 660 243C640 241 620 243 600 237C580 231 560 217 540 214C520 211 500 219 480 219C460 219 440 211 420 210C400 209 380 215 360 220C340 225 320 229 300 228C280 227 260 221 240 219C220 217 200 219 180 220C160 221 140 221 120 223C100 225 80 229 60 218C40 207 20 181 10 168L0 155Z" fill="#c01edd"></path><path d="M0 397L10 405C20 413 40 429 60 423C80 417 100 389 120 387C140 385 160 409 180 434C200 459 220 485 240 481C260 477 280 443 300 432C320 421 340 433 360 430C380 427 400 409 420 421C440 433 460 475 480 491C500 507 520 497 540 485C560 473 580 459 600 462C620 465 640 485 660 499C680 513 700 521 720 500C740 479 760 429 780 416C800 403 820 427 840 446C860 465 880 479 890 486L900 493L900 335L890 331C880 327 860 319 840 315C820 311 800 311 780 320C760 329 740 347 720 354C700 361 680 357 660 354C640 351 620 349 600 334C580 319 560 291 540 289C520 287 500 311 480 317C460 323 440 311 420 300C400 289 380 279 360 276C340 273 320 277 300 280C280 283 260 285 240 295C220 305 200 323 180 321C160 319 140 297 120 297C100 297 80 319 60 323C40 327 20 313 10 306L0 299Z" fill="#b31ccd"></path><path d="M0 577L10 573C20 569 40 561 60 561C80 561 100 569 120 571C140 573 160 569 180 570C200 571 220 577 240 576C260 575 280 567 300 567C320 567 340 575 360 577C380 579 400 575 420 574C440 573 460 575 480 573C500 571 520 565 540 561C560 557 580 555 600 557C620 559 640 565 660 569C680 573 700 575 720 572C740 569 760 561 780 561C800 561 820 569 840 569C860 569 880 561 890 557L900 553L900 491L890 484C880 477 860 463 840 444C820 425 800 401 780 414C760 427 740 477 720 498C700 519 680 511 660 497C640 483 620 463 600 460C580 457 560 471 540 483C520 495 500 505 480 489C460 473 440 431 420 419C400 407 380 425 360 428C340 431 320 419 300 430C280 441 260 475 240 479C220 483 200 457 180 432C160 407 140 383 120 385C100 387 80 415 60 421C40 427 20 411 10 403L0 395Z" fill="#a519bd"></path><path d="M0 601L10 601C20 601 40 601 60 601C80 601 100 601 120 601C140 601 160 601 180 601C200 601 220 601 240 601C260 601 280 601 300 601C320 601 340 601 360 601C380 601 400 601 420 601C440 601 460 601 480 601C500 601 520 601 540 601C560 601 580 601 600 601C620 601 640 601 660 601C680 601 700 601 720 601C740 601 760 601 780 601C800 601 820 601 840 601C860 601 880 601 890 601L900 601L900 551L890 555C880 559 860 567 840 567C820 567 800 559 780 559C760 559 740 567 720 570C700 573 680 571 660 567C640 563 620 557 600 555C580 553 560 555 540 559C520 563 500 569 480 571C460 573 440 571 420 572C400 573 380 577 360 575C340 573 320 565 300 565C280 565 260 573 240 574C220 575 200 569 180 568C160 567 140 571 120 569C100 567 80 559 60 559C40 559 20 567 10 571L0 575Z" fill="#9817ae"></path></svg>