<svg id="visual" viewBox="0 0 900 600" width="900" height="600" xmlns="http://www.w3.org/2000/svg" xmlns:xlink="http://www.w3.org/1999/xlink" version="1.1"><path d="M486 600L497.5 585.7C509 571.3 532 542.7 540.3 514.2C548.7 485.7 542.3 457.3 536.3 428.8C530.3 400.3 524.7 371.7 529.5 343C534.3 314.3 549.7 285.7 558.2 257C566.7 228.3 568.3 199.7 563.5 171.2C558.7 142.7 547.3 114.3 533.2 85.8C519 57.3 502 28.7 493.5 14.3L485 0L900 0L900 14.3C900 28.7 900 57.3 900 85.8C900 114.3 900 142.7 900 171.2C900 199.7 900 228.3 900 257C900 285.7 900 314.3 900 343C900 371.7 900 400.3 900 428.8C900 457.3 900 485.7 900 514.2C900 542.7 900 571.3 900 585.7L900 600Z" fill="#e389b9"></path><path d="M591 600L596 585.7C601 571.3 611 542.7 612.7 514.2C614.3 485.7 607.7 457.3 594.5 428.8C581.3 400.3 561.7 371.7 570.2 343C578.7 314.3 615.3 285.7 631.7 257C648 228.3 644 199.7 643.5 171.2C643 142.7 646 114.3 631.3 85.8C616.7 57.3 584.3 28.7 568.2 14.3L552 0L900 0L900 14.3C900 28.7 900 57.3 900 85.8C900 114.3 900 142.7 900 171.2C900 199.7 900 228.3 900 257C900 285.7 900 314.3 900 343C900 371.7 900 400.3 900 428.8C900 457.3 900 485.7 900 514.2C900 542.7 900 571.3 900 585.7L900 600Z" fill="#dd6dbb"></path><path d="M692 600L690.5 585.7C689 571.3 686 542.7 677.5 514.2C669 485.7 655 457.3 649.3 428.8C643.7 400.3 646.3 371.7 640.3 343C634.3 314.3 619.7 285.7 632.3 257C645 228.3 685 199.7 693.5 171.2C702 142.7 679 114.3 660.7 85.8C642.3 57.3 628.7 28.7 621.8 14.3L615 0L900 0L900 14.3C900 28.7 900 57.3 900 85.8C900 114.3 900 142.7 900 171.2C900 199.7 900 228.3 900 257C900 285.7 900 314.3 900 343C900 371.7 900 400.3 900 428.8C900 457.3 900 485.7 900 514.2C900 542.7 900 571.3 900 585.7L900 600Z" fill="#d052c1"></path><path d="M780 600L781.7 585.7C783.3 571.3 786.7 542.7 784.7 514.2C782.7 485.7 775.3 457.3 773.8 428.8C772.3 400.3 776.7 371.7 771.7 343C766.7 314.3 752.3 285.7 745.8 257C739.3 228.3 740.7 199.7 742.5 171.2C744.3 142.7 746.7 114.3 751.3 85.8C756 57.3 763 28.7 766.5 14.3L770 0L900 0L900 14.3C900 28.7 900 57.3 900 85.8C900 114.3 900 142.7 900 171.2C900 199.7 900 228.3 900 257C900 285.7 900 314.3 900 343C900 371.7 900 400.3 900 428.8C900 457.3 900 485.7 900 514.2C900 542.7 900 571.3 900 585.7L900 600Z" fill="#bc37cb"></path><path d="M804 600L801.3 585.7C798.7 571.3 793.3 542.7 790.3 514.2C787.3 485.7 786.7 457.3 795.2 428.8C803.7 400.3 821.3 371.7 827.3 343C833.3 314.3 827.7 285.7 824.2 257C820.7 228.3 819.3 199.7 811.3 171.2C803.3 142.7 788.7 114.3 792.8 85.8C797 57.3 820 28.7 831.5 14.3L843 0L900 0L900 14.3C900 28.7 900 57.3 900 85.8C900 114.3 900 142.7 900 171.2C900 199.7 900 228.3 900 257C900 285.7 900 314.3 900 343C900 371.7 900 400.3 900 428.8C900 457.3 900 485.7 900 514.2C900 542.7 900 571.3 900 585.7L900 600Z" fill="#9e1ed9"></path></svg>